<?xml version="1.0" encoding="UTF-8" standalone="no" ?>
<!DOCTYPE svg PUBLIC "-//W3C//DTD SVG 1.1//EN" "http://www.w3.org/Graphics/SVG/1.1/DTD/svg11.dtd">
<svg xmlns="http://www.w3.org/2000/svg" xmlns:xlink="http://www.w3.org/1999/xlink" version="1.1" width="500" height="141.22626" viewBox="18.576603017143015 184.63387833523166 462.84679396571397 130.7322433295367" xml:space="preserve">
<desc>Created with Fabric.js 4.6.0</desc>
<defs>
</defs>
<g transform="matrix(0.85 0 0 0.85 250 250)" id="TxwmW1ToTG6M9RvXJp3_k"  >
<path style="stroke: none; stroke-width: 1; stroke-dasharray: none; stroke-linecap: butt; stroke-dashoffset: 0; stroke-linejoin: miter; stroke-miterlimit: 4; fill: rgb(99,102,241); fill-rule: nonzero; opacity: 1;" vector-effect="non-scaling-stroke"  transform=" translate(-272.34, -76.5)" d="M 0 24.48 C 0 10.9601 10.9601 0 24.48 0 L 520.2 0 C 533.72 0 544.68 10.9601 544.68 24.48 L 544.68 128.52 C 544.68 142.04 533.72 153 520.2 153 L 24.48 153 C 10.9601 153 0 142.04 0 128.52 L 0 24.48 Z" stroke-linecap="round" />
</g>
<g transform="matrix(0.85 0 0 0.85 111.85 227.76)" id="MaBs9os0lRmtoBzooWjrQ"  >
<path style="stroke: none; stroke-width: 1; stroke-dasharray: none; stroke-linecap: butt; stroke-dashoffset: 0; stroke-linejoin: miter; stroke-miterlimit: 4; fill: rgb(13,12,34); fill-rule: nonzero; opacity: 1;" vector-effect="non-scaling-stroke"  transform=" translate(-109.41, -50.27)" d="M 109.522 50.3178 L 109.455 50.2783 L 109.299 50.2308 C 109.362 50.2836 109.44 50.3142 109.522 50.3178 Z" stroke-linecap="round" />
</g>
<g transform="matrix(0.85 0 0 0.85 112.75 233.74)" id="OHXT2yMTxFI8MxkaQfTFm"  >
<path style="stroke: none; stroke-width: 1; stroke-dasharray: none; stroke-linecap: butt; stroke-dashoffset: 0; stroke-linejoin: miter; stroke-miterlimit: 4; fill: rgb(13,12,34); fill-rule: nonzero; opacity: 1;" vector-effect="non-scaling-stroke"  transform=" translate(-110.47, -57.32)" d="M 110.507 57.3134 L 110.432 57.3344 L 110.507 57.3134 Z" stroke-linecap="round" />
</g>
<g transform="matrix(0.85 0 0 0.85 111.96 227.79)" id="p6pM0sucv6DiCx9HjjhIw"  >
<path style="stroke: none; stroke-width: 1; stroke-dasharray: none; stroke-linecap: butt; stroke-dashoffset: 0; stroke-linejoin: miter; stroke-miterlimit: 4; fill: rgb(13,12,34); fill-rule: nonzero; opacity: 1;" vector-effect="non-scaling-stroke"  transform=" translate(-109.54, -50.31)" d="M 109.549 50.3062 C 109.54 50.3051 109.532 50.3031 109.524 50.3003 C 109.523 50.3058 109.523 50.3113 109.524 50.3168 C 109.533 50.3156 109.541 50.3119 109.549 50.3062 Z" stroke-linecap="round" />
</g>
<g transform="matrix(0.85 0 0 0.85 111.95 227.8)" id="_z5aXy-BRqHw2H8fy7fL1"  >
<path style="stroke: none; stroke-width: 1; stroke-dasharray: none; stroke-linecap: butt; stroke-dashoffset: 0; stroke-linejoin: miter; stroke-miterlimit: 4; fill: rgb(13,12,34); fill-rule: nonzero; opacity: 1;" vector-effect="non-scaling-stroke"  transform=" translate(-109.53, -50.32)" d="M 109.523 50.3205 L 109.536 50.3205 L 109.536 50.3127 L 109.523 50.3205 Z" stroke-linecap="round" />
</g>
<g transform="matrix(0.85 0 0 0.85 112.81 233.67)" id="shXlVnw9w2wnHqjXGQYR_"  >
<path style="stroke: none; stroke-width: 1; stroke-dasharray: none; stroke-linecap: butt; stroke-dashoffset: 0; stroke-linejoin: miter; stroke-miterlimit: 4; fill: rgb(13,12,34); fill-rule: nonzero; opacity: 1;" vector-effect="non-scaling-stroke"  transform=" translate(-110.54, -57.24)" d="M 110.447 57.3006 L 110.56 57.2361 L 110.602 57.2123 L 110.64 57.1715 C 110.569 57.2025 110.503 57.2462 110.447 57.3006 Z" stroke-linecap="round" />
</g>
<g transform="matrix(0.85 0 0 0.85 112.03 227.87)" id="kHSEFvwbiMCwt076AcInl"  >
<path style="stroke: none; stroke-width: 1; stroke-dasharray: none; stroke-linecap: butt; stroke-dashoffset: 0; stroke-linejoin: miter; stroke-miterlimit: 4; fill: rgb(13,12,34); fill-rule: nonzero; opacity: 1;" vector-effect="non-scaling-stroke"  transform=" translate(-109.62, -50.4)" d="M 109.715 50.4713 L 109.604 50.3659 L 109.529 50.3251 C 109.57 50.3963 109.636 50.4488 109.715 50.4713 Z" stroke-linecap="round" />
</g>
<g transform="matrix(0.85 0 0 0.85 88.41 285.56)" id="Ln6ZW45rKj3dxb4ioDcRW"  >
<path style="stroke: none; stroke-width: 1; stroke-dasharray: none; stroke-linecap: butt; stroke-dashoffset: 0; stroke-linejoin: miter; stroke-miterlimit: 4; fill: rgb(13,12,34); fill-rule: nonzero; opacity: 1;" vector-effect="non-scaling-stroke"  transform=" translate(-81.77, -118.44)" d="M 81.8801 118.353 C 81.7916 118.391 81.7142 118.451 81.6548 118.527 L 81.7246 118.482 C 81.772 118.439 81.8392 118.387 81.8801 118.353 Z" stroke-linecap="round" />
</g>
<g transform="matrix(0.85 0 0 0.85 102.2 282.88)" id="ngSgNofB9XWuLsI-7Vf1v"  >
<path style="stroke: none; stroke-width: 1; stroke-dasharray: none; stroke-linecap: butt; stroke-dashoffset: 0; stroke-linejoin: miter; stroke-miterlimit: 4; fill: rgb(13,12,34); fill-rule: nonzero; opacity: 1;" vector-effect="non-scaling-stroke"  transform=" translate(-98.03, -115.28)" d="M 98.0456 115.173 C 98.0456 115.073 97.9968 115.091 98.0087 115.447 C 98.0087 115.418 98.0206 115.389 98.0258 115.361 C 98.0324 115.298 98.0377 115.236 98.0456 115.173 Z" stroke-linecap="round" />
</g>
<g transform="matrix(0.85 0 0 0.85 100.7 285.56)" id="XrJkxBkryyrhQrptxy6sl"  >
<path style="stroke: none; stroke-width: 1; stroke-dasharray: none; stroke-linecap: butt; stroke-dashoffset: 0; stroke-linejoin: miter; stroke-miterlimit: 4; fill: rgb(13,12,34); fill-rule: nonzero; opacity: 1;" vector-effect="non-scaling-stroke"  transform=" translate(-96.26, -118.44)" d="M 96.3761 118.353 C 96.2877 118.391 96.2103 118.451 96.1509 118.527 L 96.2207 118.482 C 96.2681 118.439 96.3353 118.387 96.3761 118.353 Z" stroke-linecap="round" />
</g>
<g transform="matrix(0.85 0 0 0.85 78.74 286.08)" id="808FxALa3ffLoliXo3Lzz"  >
<path style="stroke: none; stroke-width: 1; stroke-dasharray: none; stroke-linecap: butt; stroke-dashoffset: 0; stroke-linejoin: miter; stroke-miterlimit: 4; fill: rgb(13,12,34); fill-rule: nonzero; opacity: 1;" vector-effect="non-scaling-stroke"  transform=" translate(-70.37, -119.05)" d="M 70.4886 119.11 C 70.4215 119.052 70.3393 119.013 70.2515 118.999 C 70.3226 119.034 70.3937 119.068 70.4412 119.094 L 70.4886 119.11 Z" stroke-linecap="round" />
</g>
<g transform="matrix(0.85 0 0 0.85 76.63 283.93)" id="w7INjtSuKZi6PArIS4rLJ"  >
<path style="stroke: none; stroke-width: 1; stroke-dasharray: none; stroke-linecap: butt; stroke-dashoffset: 0; stroke-linejoin: miter; stroke-miterlimit: 4; fill: rgb(13,12,34); fill-rule: nonzero; opacity: 1;" vector-effect="non-scaling-stroke"  transform=" translate(-67.88, -116.51)" d="M 67.9304 116.657 C 67.92 116.553 67.8881 116.453 67.8369 116.362 C 67.8732 116.456 67.9035 116.553 67.9278 116.652 L 67.9304 116.657 Z" stroke-linecap="round" />
</g>
<g transform="matrix(0.85 0 0 0.85 89.37 264.84)" id="ceVPdm1wYR21QZj0yZ5E3"  >
<path style="stroke: none; stroke-width: 1; stroke-dasharray: none; stroke-linecap: butt; stroke-dashoffset: 0; stroke-linejoin: miter; stroke-miterlimit: 4; fill: rgb(255,221,0); fill-rule: nonzero; opacity: 1;" vector-effect="non-scaling-stroke"  transform=" translate(-82.9, -94)" d="M 85.1368 72.7737 C 81.6195 74.2794 77.628 75.9866 72.4549 75.9866 C 70.2908 75.9823 68.1373 75.6854 66.0527 75.104 L 69.6306 111.838 C 69.7572 113.373 70.4567 114.805 71.59 115.848 C 72.7233 116.892 74.2076 117.471 75.7482 117.47 C 75.7482 117.47 80.8212 117.734 82.514 117.734 C 84.3358 117.734 89.7988 117.47 89.7988 117.47 C 91.3391 117.47 92.8231 116.891 93.9562 115.848 C 95.0892 114.804 95.7885 113.373 95.9151 111.838 L 99.7472 71.2456 C 98.0347 70.6607 96.3064 70.2721 94.358 70.2721 C 90.9883 70.2708 88.2733 71.4313 85.1368 72.7737 Z" stroke-linecap="round" />
</g>
<g transform="matrix(0.85 0 0 0.85 65.74 233.58)" id="KXtyb3PAR-uxstywtJH3I"  >
<path style="stroke: none; stroke-width: 1; stroke-dasharray: none; stroke-linecap: butt; stroke-dashoffset: 0; stroke-linejoin: miter; stroke-miterlimit: 4; fill: rgb(13,12,34); fill-rule: nonzero; opacity: 1;" vector-effect="non-scaling-stroke"  transform=" translate(-55.03, -57.14)" d="M 54.9844 57.1021 L 55.045 57.1587 L 55.0845 57.1824 C 55.0541 57.1522 55.0205 57.1252 54.9844 57.1021 Z" stroke-linecap="round" />
</g>
<g transform="matrix(0.85 0 0 0.85 89.27 250)" id="K10XEMBpYata9XzrTEzeF"  >
<path style="stroke: none; stroke-width: 1; stroke-dasharray: none; stroke-linecap: butt; stroke-dashoffset: 0; stroke-linejoin: miter; stroke-miterlimit: 4; fill: rgb(13,12,34); fill-rule: nonzero; opacity: 1;" vector-effect="non-scaling-stroke"  transform=" translate(-82.78, -76.5)" d="M 116.299 53.7119 L 115.761 50.9943 C 115.277 48.5559 114.18 46.2519 111.677 45.3706 C 110.875 45.0887 109.964 44.9675 109.349 44.384 C 108.734 43.8004 108.552 42.8941 108.41 42.0536 C 108.147 40.511 107.899 38.9671 107.629 37.4272 C 107.396 36.1033 107.211 34.616 106.604 33.4015 C 105.814 31.7706 104.174 30.8169 102.543 30.1859 C 101.707 29.8739 100.854 29.61 99.9884 29.3955 C 95.9139 28.3205 91.63 27.9253 87.4382 27.7001 C 82.407 27.4225 77.3623 27.5061 72.343 27.9504 C 68.6071 28.2902 64.6723 28.7013 61.1221 29.9935 C 59.8245 30.4665 58.4875 31.0342 57.5008 32.0367 C 56.2902 33.2684 55.895 35.1733 56.7789 36.7092 C 57.4073 37.8 58.4717 38.5706 59.6006 39.0804 C 61.0711 39.7373 62.6068 40.2371 64.1822 40.5716 C 68.5689 41.5412 73.1124 41.9219 77.5939 42.0839 C 82.561 42.2844 87.5362 42.1219 92.4796 41.5978 C 93.7021 41.4635 94.9224 41.3023 96.1405 41.1144 C 97.575 40.8944 98.4958 39.0185 98.073 37.7117 C 97.5671 36.1494 96.2077 35.5434 94.6703 35.7792 C 94.4438 35.8148 94.2185 35.8477 93.9919 35.8807 L 93.8286 35.9044 C 93.3078 35.9702 92.787 36.0317 92.2662 36.0888 C 91.1904 36.2047 90.112 36.2996 89.0309 36.3733 C 86.6097 36.5419 84.1818 36.6197 81.7553 36.6236 C 79.371 36.6236 76.9853 36.5564 74.6062 36.3997 C 73.5207 36.3285 72.4379 36.2381 71.3577 36.1283 C 70.8663 36.0769 70.3763 36.0229 69.8862 35.9623 L 69.4199 35.903 L 69.3185 35.8886 L 68.835 35.8187 C 67.847 35.6699 66.859 35.4986 65.8816 35.2918 C 65.783 35.2699 65.6947 35.2151 65.6315 35.1363 C 65.5683 35.0575 65.5338 34.9594 65.5338 34.8584 C 65.5338 34.7574 65.5683 34.6594 65.6315 34.5806 C 65.6947 34.5018 65.783 34.4469 65.8816 34.425 L 65.9 34.425 C 66.7471 34.2445 67.6007 34.0904 68.4569 33.956 C 68.7424 33.9113 69.0287 33.8673 69.3158 33.8243 L 69.3237 33.8243 C 69.8599 33.7887 70.3987 33.6926 70.9322 33.6293 C 75.574 33.1465 80.2434 32.9819 84.9077 33.1367 C 87.1721 33.2025 89.4353 33.3356 91.6892 33.5648 C 92.174 33.6149 92.6562 33.6676 93.1383 33.7268 C 93.3227 33.7492 93.5085 33.7756 93.6942 33.798 L 94.0683 33.852 C 95.1591 34.0144 96.2441 34.2116 97.3234 34.4435 C 98.9227 34.7912 100.976 34.9045 101.688 36.6566 C 101.914 37.2125 102.017 37.8303 102.142 38.4139 L 102.302 39.1581 C 102.306 39.1715 102.309 39.1852 102.311 39.199 C 102.688 40.9554 103.065 42.7118 103.442 44.4683 C 103.47 44.598 103.471 44.7321 103.444 44.8621 C 103.418 44.9921 103.365 45.1153 103.289 45.2239 C 103.213 45.3326 103.115 45.4244 103.002 45.4936 C 102.889 45.5628 102.762 45.6079 102.631 45.6262 L 102.62 45.6262 L 102.39 45.6578 L 102.162 45.6881 C 101.44 45.7821 100.717 45.8699 99.9936 45.9516 C 98.5683 46.114 97.1408 46.2546 95.711 46.3731 C 92.87 46.6094 90.0233 46.7644 87.1708 46.8381 C 85.7174 46.8768 84.2644 46.8948 82.8118 46.8921 C 77.0301 46.8876 71.2534 46.5516 65.5101 45.8857 C 64.8883 45.8119 64.2666 45.7329 63.6448 45.6525 C 64.1269 45.7145 63.2944 45.6051 63.1258 45.5814 C 62.7306 45.5261 62.3354 45.4686 61.9402 45.4088 C 60.6136 45.2099 59.295 44.9649 57.9711 44.7502 C 56.3705 44.4867 54.8398 44.6185 53.3921 45.4088 C 52.2037 46.0591 51.2419 47.0564 50.6349 48.2674 C 50.0105 49.5584 49.8248 50.964 49.5455 52.3511 C 49.2662 53.7383 48.8315 55.2308 48.9962 56.6548 C 49.3505 59.7281 51.4991 62.2258 54.5895 62.7843 C 57.4968 63.3112 60.42 63.7381 63.351 64.1016 C 74.8648 65.5118 86.4968 65.6805 98.0466 64.6049 C 98.9872 64.517 99.9265 64.4213 100.864 64.3177 C 101.157 64.2855 101.454 64.3192 101.732 64.4165 C 102.01 64.5137 102.263 64.6719 102.472 64.8795 C 102.681 65.0872 102.842 65.339 102.941 65.6165 C 103.04 65.894 103.076 66.1902 103.046 66.4834 L 102.753 69.3261 C 102.164 75.0705 101.575 80.8145 100.986 86.558 C 100.371 92.5896 99.7521 98.6208 99.1295 104.651 C 98.9538 106.35 98.7782 108.048 98.6025 109.746 C 98.4339 111.417 98.4102 113.142 98.0927 114.794 C 97.5922 117.391 95.8335 118.987 93.2674 119.57 C 90.9164 120.105 88.5148 120.386 86.1038 120.408 C 83.431 120.422 80.7594 120.304 78.0866 120.318 C 75.2333 120.334 71.7384 120.071 69.5358 117.947 C 67.6007 116.082 67.3333 113.161 67.0698 110.636 C 66.7185 107.293 66.3703 103.95 66.0252 100.607 L 64.0887 82.0212 L 62.8359 69.9953 C 62.8149 69.7964 62.7938 69.6001 62.774 69.3999 C 62.6239 67.9654 61.6082 66.5611 60.0077 66.6335 C 58.6376 66.6941 57.0806 67.8586 57.2413 69.3999 L 58.17 78.3155 L 60.0906 96.7581 C 60.6378 101.997 61.1836 107.236 61.7281 112.476 C 61.8335 113.48 61.9323 114.487 62.0429 115.49 C 62.6449 120.976 66.834 123.932 72.0216 124.764 C 75.0515 125.252 78.1551 125.352 81.2297 125.402 C 85.1711 125.465 89.1521 125.617 93.029 124.903 C 98.7738 123.849 103.084 120.013 103.699 114.062 C 103.875 112.345 104.051 110.626 104.226 108.908 C 104.81 103.224 105.393 97.5397 105.976 91.855 L 107.88 73.2807 L 108.754 64.7682 C 108.797 64.3461 108.976 63.9492 109.262 63.6363 C 109.549 63.3234 109.929 63.111 110.345 63.0307 C 111.988 62.7105 113.558 62.1639 114.727 60.9137 C 116.587 58.9232 116.957 56.3281 116.299 53.7119 Z M 54.5052 55.5483 C 54.5302 55.5364 54.4841 55.7511 54.4644 55.8513 C 54.4604 55.6998 54.4683 55.5654 54.5052 55.5483 Z M 54.6646 56.7813 C 54.6778 56.7721 54.7173 56.8248 54.7581 56.888 C 54.6962 56.83 54.6567 56.7866 54.6633 56.7813 L 54.6646 56.7813 Z M 54.8214 56.9881 C 54.878 57.0843 54.9083 57.1449 54.8214 56.9881 L 54.8214 56.9881 Z M 55.1362 57.2437 L 55.1441 57.2437 C 55.1441 57.2529 55.1586 57.2621 55.1639 57.2713 C 55.1551 57.2612 55.1454 57.2519 55.1349 57.2437 L 55.1362 57.2437 Z M 110.269 56.8616 C 109.679 57.4228 108.789 57.6837 107.911 57.8141 C 98.0572 59.2763 88.06 60.0166 78.0984 59.6899 C 70.9691 59.4462 63.9148 58.6545 56.8566 57.6573 C 56.165 57.5598 55.4155 57.4334 54.9399 56.9236 C 54.0441 55.9619 54.4841 54.0254 54.7173 52.8636 C 54.9307 51.7992 55.3391 50.3804 56.605 50.2289 C 58.581 49.9971 60.8758 50.8309 62.8307 51.1273 C 65.1843 51.4865 67.5467 51.7741 69.9179 51.9902 C 80.0375 52.9123 90.3271 52.7687 100.402 51.4198 C 102.238 51.173 104.068 50.8863 105.891 50.5596 C 107.516 50.2684 109.316 49.7218 110.298 51.404 C 110.971 52.55 111.06 54.0834 110.956 55.3783 C 110.924 55.9425 110.678 56.4732 110.267 56.8616 L 110.269 56.8616 Z" stroke-linecap="round" />
</g>
<g transform="matrix(0.85 0 0 0.85 156.25 248.13)" id="VZw_Hru_xE9U9lOTK6xCw"  >
<path style="stroke: none; stroke-width: 1; stroke-dasharray: none; stroke-linecap: butt; stroke-dashoffset: 0; stroke-linejoin: miter; stroke-miterlimit: 4; fill: rgb(255,255,255); fill-rule: evenodd; opacity: 1;" vector-effect="non-scaling-stroke"  transform=" translate(0, 0)" d="M 8.26446 9.94936 C 7.6894599999999995 11.047460000000001 6.89846 12.00386 5.8914599999999995 12.81536 C 4.88446 13.62746 3.7104599999999994 14.28866 2.3674599999999995 14.79776 C 1.0254599999999994 15.308060000000001 -0.3255400000000006 15.65046 -1.6835400000000007 15.82496 C -3.0425400000000007 16.00016 -4.361540000000001 15.984960000000001 -5.638540000000001 15.77706 C -6.917540000000001 15.57046 -8.00554 15.148660000000001 -8.899540000000002 14.51106 L -7.891540000000002 4.04936 C -6.965540000000002 3.7312600000000002 -5.799540000000002 3.40456 -4.392540000000002 3.0700600000000002 C -2.9865400000000024 2.73606 -1.5405400000000022 2.4966600000000003 -0.0535400000000017 2.35366 C 1.4334599999999984 2.21006 2.838459999999998 2.22696 4.165459999999999 2.40156 C 5.491459999999998 2.57666 6.538459999999999 2.9984599999999997 7.305459999999998 3.66756 C 7.721459999999999 4.04936 8.073459999999999 4.46336 8.360459999999998 4.9093599999999995 C 8.648459999999998 5.35546 8.823459999999997 5.817259999999999 8.888459999999998 6.29486 C 9.04746 7.63236 8.840459999999998 8.85056 8.264459999999998 9.94936 z M -6.35854 -12.33584 C -5.687539999999999 -12.74974 -4.8795399999999995 -13.116439999999999 -3.93754 -13.435239999999999 C -2.9945399999999998 -13.75274 -2.02754 -13.976439999999998 -1.03654 -14.103639999999999 C -0.046540000000000026 -14.230339999999998 0.9204600000000001 -14.24734 1.8644599999999998 -14.151539999999999 C 2.8064599999999995 -14.055839999999998 3.63846 -13.793339999999999 4.35746 -13.363639999999998 C 5.07646 -12.933339999999998 5.611459999999999 -12.312139999999998 5.9634599999999995 -11.500639999999999 C 6.3144599999999995 -10.68794 6.41046 -9.660739999999999 6.2504599999999995 -8.41894 C 6.12346 -7.431639999999999 5.730459999999999 -6.595339999999999 5.076459999999999 -5.91104 C 4.421459999999999 -5.22564 3.621459999999999 -4.65294 2.6794599999999993 -4.19104 C 1.7364599999999992 -3.72864 0.7374599999999993 -3.36264 -0.3165400000000007 -3.09294 C -1.3725400000000008 -2.82144 -2.387540000000001 -2.62204 -3.3615400000000006 -2.49534 C -4.33654 -2.36744 -5.183540000000001 -2.28744 -5.90254 -2.25654 C -6.62154 -2.2244400000000004 -7.09354 -2.20874 -7.31754 -2.20874 z M 13.44246 3.18946 C 12.931460000000001 2.0754599999999996 12.24446 1.09606 11.38146 0.2512599999999998 C 10.518460000000001 -0.5923400000000002 9.49446 -1.2050400000000001 8.312460000000002 -1.5874400000000002 C 8.82346 -2.00144 9.327460000000002 -2.65414 9.82346 -3.54624 C 10.31846 -4.43714 10.74146 -5.4092400000000005 11.09346 -6.46014 C 11.44446 -7.51164 11.68546 -8.56984 11.81246 -9.637039999999999 C 11.93946 -10.70374 11.89146 -11.619439999999999 11.669459999999999 -12.384339999999998 C 11.12446 -14.294539999999998 10.27046 -15.791539999999998 9.103459999999998 -16.874539999999996 C 7.9364599999999985 -17.956939999999996 6.578459999999998 -18.705439999999996 5.028459999999998 -19.119939999999996 C 3.477459999999998 -19.532639999999997 1.7684599999999984 -19.621139999999997 -0.10154000000000174 -19.382339999999996 C -1.9715400000000018 -19.143639999999994 -3.8815400000000015 -18.673939999999995 -5.830540000000002 -17.973339999999997 C -5.830540000000002 -18.132139999999996 -5.814540000000002 -18.299339999999997 -5.782540000000002 -18.474539999999998 C -5.751540000000002 -18.649039999999996 -5.735540000000002 -18.832739999999998 -5.735540000000002 -19.02424 C -5.735540000000002 -19.501739999999998 -5.974540000000002 -19.915139999999997 -6.454540000000002 -20.26604 C -6.9335400000000025 -20.61634 -7.484540000000003 -20.82294 -8.107540000000002 -20.88724 C -8.731540000000003 -20.950239999999997 -9.338540000000002 -20.815739999999998 -9.930540000000002 -20.48114 C -10.521540000000002 -20.14664 -10.929540000000003 -19.53264 -11.152540000000002 -18.64244 C -11.408540000000002 -15.77574 -11.664540000000002 -12.797640000000001 -11.919540000000001 -9.709140000000001 C -12.175540000000002 -6.6195400000000015 -12.447540000000002 -3.4983400000000016 -12.73454 -0.3450400000000009 C -13.022540000000001 2.807559999999999 -13.310540000000001 5.936659999999999 -13.59754 9.041459999999999 C -13.88554 12.146859999999998 -14.173540000000001 15.132259999999999 -14.46054 17.99826 C -14.36454 18.858259999999998 -14.125539999999999 19.527359999999998 -13.74154 20.004959999999997 C -13.358540000000001 20.48306 -12.910540000000001 20.769759999999998 -12.39954 20.864959999999996 C -11.88854 20.960659999999997 -11.35254 20.872159999999997 -10.79354 20.601859999999995 C -10.23454 20.332159999999995 -9.74654 19.861259999999994 -9.33054 19.192859999999996 C -8.052539999999999 19.893459999999997 -6.613539999999999 20.347359999999995 -5.015539999999999 20.554659999999995 C -3.417539999999999 20.761259999999996 -1.796539999999999 20.761259999999996 -0.14853999999999878 20.554659999999995 C 1.4964600000000012 20.347359999999995 3.118460000000001 19.957659999999994 4.716460000000001 19.383759999999995 C 6.314460000000001 18.810959999999994 7.769460000000001 18.094059999999995 9.079460000000001 17.234659999999995 C 10.390460000000001 16.374659999999995 11.492460000000001 15.394659999999995 12.388460000000002 14.296559999999994 C 13.282460000000002 13.197159999999995 13.874460000000003 12.011059999999993 14.161460000000002 10.737759999999994 C 14.449460000000002 9.431759999999993 14.529460000000002 8.126359999999995 14.401460000000002 6.820259999999994 C 14.273460000000002 5.514859999999994 13.953460000000002 4.305159999999994 13.442460000000002 3.189459999999994 z" stroke-linecap="round" />
</g>
<g transform="matrix(0.85 0 0 0.85 195.46 263.19)" id="-RoCa95EooWY3DQzbby7x"  >
<path style="stroke: none; stroke-width: 1; stroke-dasharray: none; stroke-linecap: butt; stroke-dashoffset: 0; stroke-linejoin: miter; stroke-miterlimit: 4; fill: rgb(255,255,255); fill-rule: evenodd; opacity: 1;" vector-effect="non-scaling-stroke"  transform=" translate(-208.02, -92.05)" d="M 221.989 102.702 C 221.814 103.753 221.565 104.86 221.246 106.023 C 220.926 107.184 220.551 108.244 220.12 109.2 C 219.688 110.155 219.209 110.926 218.682 111.516 C 218.154 112.105 217.586 112.352 216.979 112.257 C 216.5 112.192 216.196 111.89 216.069 111.349 C 215.94 110.807 215.94 110.138 216.069 109.343 C 216.196 108.546 216.443 107.646 216.811 106.643 C 217.179 105.64 217.627 104.644 218.154 103.658 C 218.682 102.67 219.281 101.723 219.952 100.815 C 220.623 99.9082 221.326 99.1512 222.061 98.5464 C 222.221 98.7373 222.293 99.2149 222.277 99.9797 C 222.26 100.744 222.165 101.652 221.989 102.702 Z M 238.243 81.9697 C 237.811 81.4921 237.284 81.2218 236.66 81.1576 C 236.037 81.0939 235.405 81.4442 234.767 82.2085 C 234.351 82.9727 233.823 83.7054 233.184 84.406 C 232.545 85.1072 231.882 85.7436 231.195 86.3169 C 230.507 86.8896 229.852 87.3841 229.229 87.7975 C 228.606 88.212 228.118 88.5144 227.767 88.7053 C 227.639 87.6866 227.566 86.5878 227.551 85.409 C 227.534 84.2308 227.559 83.0369 227.623 81.8266 C 227.718 80.1067 227.918 78.3715 228.222 76.6194 C 228.526 74.868 228.965 73.148 229.541 71.4595 C 229.541 70.5686 229.332 69.8438 228.917 69.2862 C 228.501 68.7293 227.998 68.3784 227.407 68.2353 C 226.815 68.0923 226.209 68.1717 225.585 68.4741 C 224.962 68.7771 224.427 69.3268 223.979 70.122 C 223.596 71.1735 223.156 72.3516 222.661 73.6571 C 222.165 74.9631 221.606 76.2928 220.983 77.6461 C 220.359 79.0006 219.664 80.3139 218.897 81.5873 C 218.13 82.8618 217.291 83.9927 216.38 84.9793 C 215.469 85.9666 214.478 86.7393 213.408 87.2963 C 212.336 87.8538 211.179 88.1005 209.932 88.0369 C 209.356 87.8775 208.94 87.4478 208.685 86.7466 C 208.429 86.0466 208.277 85.1702 208.23 84.1193 C 208.182 83.0684 208.23 81.9139 208.373 80.6557 C 208.517 79.3982 208.709 78.1479 208.949 76.9061 C 209.188 75.6637 209.452 74.4855 209.739 73.371 C 210.027 72.2565 210.298 71.3165 210.554 70.5523 C 210.938 69.6292 210.938 68.8559 210.554 68.2353 C 210.171 67.6141 209.644 67.2008 208.973 66.9929 C 208.302 66.7863 207.598 66.7947 206.863 67.0172 C 206.128 67.2402 205.6 67.7335 205.281 68.4977 C 204.737 69.8044 204.241 71.2686 203.794 72.8928 C 203.347 74.5171 202.987 76.1976 202.716 77.9328 C 202.444 79.6691 202.291 81.3891 202.26 83.0927 C 202.258 83.2036 202.263 83.309 202.263 83.4193 C 201.566 85.2708 200.902 86.6702 200.271 87.6066 C 199.456 88.8174 198.536 89.3429 197.514 89.1829 C 197.065 88.992 196.771 88.5465 196.627 87.8453 C 196.482 87.1453 196.435 86.2854 196.482 85.2654 C 196.531 84.2472 196.651 83.0927 196.842 81.8024 C 197.035 80.5127 197.273 79.1752 197.561 77.7897 C 197.849 76.4037 198.153 75.0116 198.472 73.6098 C 198.792 72.2086 199.079 70.8868 199.336 69.6444 C 199.304 68.5299 198.976 67.6784 198.352 67.0887 C 197.73 66.5002 196.858 66.2693 195.74 66.396 C 194.973 66.7147 194.405 67.1293 194.038 67.6384 C 193.67 68.1474 193.374 68.8008 193.151 69.5965 C 193.022 70.0111 192.831 70.8389 192.575 72.0813 C 192.319 73.3225 191.992 74.7486 191.592 76.3564 C 191.193 77.9655 190.721 79.6449 190.178 81.3963 C 189.635 83.1478 189.027 84.7333 188.357 86.1496 C 187.685 87.5666 186.95 88.7053 186.151 89.5653 C 185.352 90.4247 184.489 90.7756 183.562 90.6162 C 183.05 90.5205 182.723 89.995 182.579 89.0399 C 182.435 88.0841 182.412 86.9066 182.507 85.5048 C 182.603 84.1036 182.795 82.5666 183.082 80.8951 C 183.37 79.223 183.665 77.6388 183.969 76.1413 C 184.273 74.6449 184.553 73.3225 184.809 72.1765 C 185.064 71.0298 185.24 70.2656 185.336 69.8838 C 185.336 68.9602 185.127 68.2202 184.713 67.662 C 184.297 67.1056 183.794 66.7547 183.202 66.6111 C 182.61 66.4681 182.003 66.5475 181.381 66.8499 C 180.757 67.1529 180.222 67.7026 179.774 68.4977 C 179.614 69.3577 179.406 70.3535 179.151 71.4838 C 178.895 72.614 178.648 73.7765 178.408 74.971 C 178.168 76.1655 177.944 77.3358 177.737 78.4824 C 177.529 79.6291 177.377 80.6321 177.281 81.4921 C 177.217 82.1606 177.145 82.9812 177.066 83.9521 C 176.985 84.9242 176.945 85.9508 176.945 87.0332 C 176.945 88.1169 177.025 89.1914 177.186 90.258 C 177.345 91.3253 177.633 92.3047 178.048 93.1956 C 178.463 94.0877 179.047 94.8198 179.799 95.3931 C 180.549 95.9664 181.5 96.2846 182.651 96.3489 C 183.833 96.4119 184.864 96.3252 185.744 96.0858 C 186.622 95.847 187.421 95.4725 188.141 94.9628 C 188.86 94.4543 189.515 93.8489 190.107 93.1477 C 190.697 92.4477 191.281 91.6835 191.856 90.855 C 192.4 92.0659 193.103 93.0047 193.966 93.6737 C 194.829 94.3422 195.74 94.741 196.699 94.8677 C 197.657 94.9943 198.633 94.8604 199.624 94.4616 C 200.614 94.064 201.509 93.3871 202.308 92.4313 C 202.835 91.8453 203.331 91.1792 203.797 90.4429 C 203.995 90.7877 204.205 91.1204 204.442 91.4277 C 205.225 92.4477 206.288 93.1477 207.631 93.5301 C 209.069 93.9125 210.474 93.9768 211.849 93.7216 C 213.223 93.4671 214.534 93.0047 215.78 92.3362 C 217.027 91.6671 218.185 90.8635 219.257 89.9235 C 220.327 88.9841 221.262 88.0053 222.061 86.9854 C 222.029 87.7181 222.013 88.4114 222.013 89.0635 C 222.013 89.7168 221.997 90.4247 221.966 91.1895 C 220.367 92.3047 218.857 93.6422 217.435 95.2022 C 216.012 96.7622 214.765 98.4264 213.695 100.194 C 212.624 101.961 211.785 103.753 211.179 105.568 C 210.571 107.384 210.275 109.08 210.291 110.657 C 210.307 112.233 210.682 113.61 211.418 114.788 C 212.152 115.967 213.351 116.81 215.013 117.32 C 216.74 117.862 218.257 117.877 219.569 117.368 C 220.879 116.858 222.021 116.014 222.996 114.836 C 223.971 113.658 224.77 112.233 225.394 110.561 C 226.017 108.889 226.512 107.145 226.88 105.33 C 227.247 103.515 227.479 101.73 227.575 99.9797 C 227.671 98.2276 227.671 96.6664 227.575 95.2974 C 230.324 94.1513 232.577 92.7022 234.335 90.9501 C 236.093 89.1999 237.547 87.352 238.698 85.409 C 239.049 84.9314 239.169 84.3581 239.058 83.6896 C 238.945 83.0206 238.674 82.4472 238.243 81.9697 Z" stroke-linecap="round" />
</g>
<g transform="matrix(0.85 0 0 0.85 258.52 254.04)" id="w-8yvq0lig-hJY6SFv4fg"  >
<path style="stroke: none; stroke-width: 1; stroke-dasharray: none; stroke-linecap: butt; stroke-dashoffset: 0; stroke-linejoin: miter; stroke-miterlimit: 4; fill: rgb(255,255,255); fill-rule: evenodd; opacity: 1;" vector-effect="non-scaling-stroke"  transform=" translate(-282.39, -81.26)" d="M 298.724 78.9135 C 298.82 78.1814 298.964 77.4087 299.155 76.5966 C 299.347 75.7845 299.587 74.996 299.875 74.2318 C 300.162 73.4676 300.498 72.807 300.882 72.2494 C 301.265 71.6924 301.673 71.2943 302.104 71.0549 C 302.536 70.8167 302.974 70.8403 303.423 71.1264 C 303.902 71.4137 304.197 72.0185 304.31 72.9415 C 304.421 73.8663 304.31 74.853 303.974 75.9039 C 303.638 76.9554 303.039 77.942 302.176 78.8657 C 301.313 79.7899 300.146 80.3941 298.676 80.6808 C 298.612 80.236 298.628 79.6463 298.724 78.9135 Z M 315.336 80.8717 C 314.809 80.7135 314.306 80.6972 313.826 80.8244 C 313.347 80.9517 313.043 81.2862 312.916 81.8281 C 312.659 82.8468 312.251 83.8898 311.692 84.9565 C 311.133 86.0238 310.446 87.0346 309.632 87.9904 C 308.817 88.9455 307.897 89.7898 306.875 90.5219 C 305.851 91.2546 304.781 91.78 303.662 92.0982 C 302.543 92.4491 301.616 92.4885 300.882 92.2176 C 300.146 91.9479 299.563 91.4855 299.132 90.8328 C 298.7 90.1801 298.388 89.3916 298.197 88.468 C 298.005 87.5443 297.893 86.5892 297.861 85.6013 C 299.683 85.7292 301.305 85.4032 302.728 84.622 C 304.149 83.8426 305.356 82.8068 306.347 81.5171 C 307.337 80.2275 308.089 78.7784 308.6 77.1699 C 309.111 75.5621 309.399 73.9615 309.463 72.3688 C 309.495 70.8718 309.272 69.6064 308.792 68.5713 C 308.313 67.5367 307.665 66.7313 306.85 66.1586 C 306.036 65.5853 305.1 65.2507 304.046 65.1556 C 302.992 65.0598 301.92 65.2034 300.833 65.5853 C 299.522 66.0313 298.412 66.7555 297.501 67.7592 C 296.59 68.7622 295.831 69.9252 295.224 71.2464 C 294.617 72.5682 294.137 73.993 293.786 75.5215 C 293.434 77.0505 293.178 78.5554 293.019 80.0366 C 292.875 81.3656 292.798 82.6365 292.771 83.8632 C 292.702 84.0189 292.636 84.1686 292.563 84.3353 C 292.067 85.4668 291.491 86.5734 290.837 87.6558 C 290.182 88.7389 289.454 89.6467 288.656 90.3788 C 287.857 91.1116 287.026 91.3661 286.163 91.1431 C 285.651 91.0164 285.372 90.4261 285.324 89.3758 C 285.276 88.3243 285.331 87.0189 285.491 85.4583 C 285.651 83.8983 285.835 82.2093 286.043 80.3941 C 286.25 78.579 286.354 76.8439 286.354 75.1875 C 286.354 73.7542 286.082 72.3773 285.539 71.0549 C 284.995 69.7343 284.252 68.6349 283.31 67.7592 C 282.367 66.8828 281.272 66.3016 280.026 66.0156 C 278.779 65.7283 277.437 65.9198 275.999 66.5883 C 274.56 67.2574 273.417 68.1967 272.571 69.407 C 271.723 70.6179 270.948 71.8912 270.245 73.2288 C 269.989 72.2094 269.614 71.2628 269.118 70.3864 C 268.623 69.5107 268.016 68.7464 267.297 68.0931 C 266.577 67.441 265.769 66.9313 264.876 66.5646 C 263.981 66.1992 263.037 66.0156 262.046 66.0156 C 261.088 66.0156 260.201 66.1992 259.386 66.5646 C 258.571 66.9313 257.828 67.4004 257.156 67.9737 C 256.485 68.5476 255.878 69.1919 255.334 69.9088 C 254.791 70.6252 254.311 71.3343 253.896 72.0343 C 253.831 71.2064 253.76 70.4822 253.681 69.8603 C 253.6 69.2398 253.456 68.7143 253.249 68.2846 C 253.041 67.8543 252.746 67.5283 252.362 67.3052 C 251.978 67.0828 251.435 66.9707 250.732 66.9707 C 250.38 66.9707 250.028 67.0422 249.677 67.1852 C 249.325 67.3289 249.013 67.5283 248.742 67.7828 C 248.47 68.0386 248.263 68.3482 248.119 68.7143 C 247.975 69.0804 247.936 69.5028 247.999 69.9803 C 248.031 70.3312 248.119 70.7525 248.263 71.2464 C 248.406 71.7403 248.542 72.3858 248.67 73.1809 C 248.798 73.9773 248.902 74.9409 248.982 76.0712 C 249.062 77.2021 249.085 78.5875 249.054 80.2275 C 249.021 81.8681 248.902 83.7862 248.694 85.9837 C 248.486 88.1813 248.158 90.7291 247.711 93.6267 C 247.647 94.2957 247.903 94.8376 248.479 95.2515 C 249.054 95.6648 249.709 95.9036 250.444 95.9678 C 251.179 96.0315 251.875 95.9036 252.53 95.586 C 253.185 95.2666 253.561 94.7097 253.656 93.9139 C 253.752 92.417 253.936 90.8249 254.208 89.1364 C 254.479 87.4492 254.815 85.7771 255.215 84.1207 C 255.614 82.465 256.069 80.8887 256.581 79.3911 C 257.092 77.8942 257.66 76.573 258.283 75.4263 C 258.907 74.2797 259.554 73.3645 260.225 72.6797 C 260.896 71.9949 261.599 71.6524 262.335 71.6524 C 263.229 71.6524 263.924 72.0579 264.42 72.87 C 264.915 73.6827 265.266 74.7263 265.475 75.999 C 265.682 77.2736 265.778 78.6675 265.763 80.1796 C 265.746 81.6923 265.682 83.1492 265.571 84.5504 C 265.459 85.9522 265.331 87.2019 265.187 88.3007 C 265.043 89.3995 264.939 90.1564 264.876 90.5697 C 264.876 91.3025 265.155 91.8831 265.714 92.3134 C 266.273 92.743 266.896 92.9982 267.584 93.0776 C 268.272 93.1576 268.918 93.0297 269.526 92.6952 C 270.133 92.3606 270.485 91.7964 270.581 90.9994 C 270.9 88.7067 271.34 86.4062 271.899 84.0971 C 272.458 81.7881 273.098 79.7184 273.817 77.8869 C 274.536 76.0554 275.335 74.5585 276.214 73.3961 C 277.093 72.2343 278.028 71.6524 279.019 71.6524 C 279.53 71.6524 279.922 72.0033 280.193 72.7033 C 280.465 73.4039 280.601 74.3591 280.601 75.5694 C 280.601 76.4615 280.529 77.3772 280.386 78.3166 C 280.241 79.256 280.074 80.2275 279.882 81.2305 C 279.69 82.2341 279.522 83.2608 279.378 84.3117 C 279.235 85.3632 279.163 86.4613 279.163 87.608 C 279.163 88.4043 279.243 89.3279 279.403 90.3788 C 279.562 91.4291 279.865 92.4255 280.313 93.3642 C 280.761 94.3042 281.376 95.1 282.16 95.7527 C 282.943 96.4054 283.941 96.7321 285.155 96.7321 C 286.978 96.7321 288.591 96.3418 289.998 95.5618 C 291.404 94.7818 292.611 93.763 293.618 92.5049 C 293.67 92.4388 293.718 92.3685 293.769 92.3031 C 293.846 92.4891 293.914 92.6861 294.001 92.863 C 294.688 94.2642 295.623 95.3466 296.806 96.1115 C 297.988 96.8757 299.379 97.2975 300.978 97.3775 C 302.575 97.4563 304.317 97.1618 306.204 96.4933 C 307.609 95.9836 308.832 95.3466 309.871 94.5824 C 310.909 93.8182 311.844 92.8867 312.675 91.7879 C 313.507 90.6891 314.265 89.4231 314.953 87.9904 C 315.641 86.5565 316.335 84.9171 317.038 83.0692 C 317.166 82.5608 317.046 82.1068 316.679 81.7081 C 316.311 81.3105 315.864 81.0317 315.336 80.8717 Z" stroke-linecap="round" />
</g>
<g transform="matrix(0.85 0 0 0.85 309.85 254.04)" id="41YKOXEk_1VpIg0I9yNj7"  >
<path style="stroke: none; stroke-width: 1; stroke-dasharray: none; stroke-linecap: butt; stroke-dashoffset: 0; stroke-linejoin: miter; stroke-miterlimit: 4; fill: rgb(255,255,255); fill-rule: evenodd; opacity: 1;" vector-effect="non-scaling-stroke"  transform=" translate(-342.93, -81.26)" d="M 341.393 75.5432 C 341.233 76.4832 341.018 77.5189 340.746 78.6486 C 340.474 79.7795 340.131 80.9498 339.715 82.1601 C 339.3 83.3703 338.788 84.4612 338.181 85.4321 C 337.574 86.4042 336.878 87.1757 336.096 87.7491 C 335.312 88.3224 334.41 88.5612 333.387 88.4654 C 332.875 88.4024 332.483 88.0521 332.212 87.4145 C 331.94 86.7782 331.797 85.9655 331.78 84.9782 C 331.764 83.9915 331.852 82.9085 332.044 81.7298 C 332.236 80.5522 332.531 79.3971 332.932 78.2662 C 333.331 77.1365 333.818 76.0929 334.393 75.1371 C 334.969 74.182 335.632 73.4414 336.383 72.916 C 337.134 72.3905 337.958 72.1445 338.852 72.1754 C 339.747 72.2075 340.706 72.6529 341.729 73.5129 C 341.664 73.9275 341.553 74.6044 341.393 75.5432 Z M 358.437 79.1977 C 357.941 78.9431 357.43 78.888 356.903 79.031 C 356.376 79.174 356 79.6601 355.777 80.488 C 355.649 81.3801 355.361 82.4304 354.914 83.6406 C 354.466 84.8509 353.914 85.9982 353.26 87.08 C 352.604 88.163 351.853 89.063 351.006 89.7793 C 350.159 90.4963 349.256 90.823 348.298 90.7581 C 347.498 90.6951 346.938 90.289 346.62 89.5406 C 346.299 88.7921 346.132 87.8533 346.116 86.7218 C 346.099 85.5921 346.212 84.3182 346.451 82.9007 C 346.691 81.4837 346.979 80.0746 347.314 78.6722 C 347.65 77.2716 347.994 75.9256 348.346 74.6359 C 348.697 73.3463 348.984 72.2554 349.209 71.3639 C 349.464 70.5675 349.384 69.8912 348.969 69.333 C 348.553 68.7766 348.034 68.3778 347.411 68.1391 C 346.787 67.9003 346.155 67.8366 345.516 67.9481 C 344.877 68.0597 344.462 68.4021 344.27 68.9748 C 342.384 67.3506 340.57 66.4748 338.829 66.3476 C 337.086 66.2203 335.48 66.6027 334.01 67.4942 C 332.539 68.3857 331.237 69.6754 330.103 71.3639 C 328.968 73.0523 328.049 74.8911 327.345 76.8814 C 326.642 78.8716 326.203 80.9025 326.027 82.9722 C 325.851 85.0424 325.987 86.9297 326.435 88.6333 C 326.883 90.3369 327.673 91.7308 328.808 92.8126 C 329.942 93.8956 331.485 94.4375 333.435 94.4375 C 334.298 94.4375 335.129 94.2623 335.928 93.912 C 336.726 93.5611 337.462 93.1472 338.133 92.6696 C 338.804 92.192 339.395 91.6902 339.908 91.1648 C 340.418 90.6393 340.818 90.2018 341.106 89.8509 C 341.329 90.9975 341.697 91.9696 342.209 92.7654 C 342.719 93.5611 343.303 94.215 343.958 94.7235 C 344.613 95.2326 345.301 95.6071 346.02 95.8465 C 346.739 96.0853 347.435 96.2047 348.105 96.2047 C 349.608 96.2047 351.013 95.695 352.325 94.6756 C 353.635 93.6575 354.81 92.4066 355.849 90.926 C 356.887 89.4448 357.743 87.8848 358.413 86.2442 C 359.085 84.6043 359.532 83.1473 359.756 81.8728 C 359.98 81.3952 359.939 80.894 359.636 80.3686 C 359.332 79.8431 358.933 79.4534 358.437 79.1977 Z" stroke-linecap="round" />
</g>
<g transform="matrix(0.85 0 0 0.85 385.66 256.94)" id="Pt1P6N5FkNxIPHrDhuYBe"  >
<path style="stroke: none; stroke-width: 1; stroke-dasharray: none; stroke-linecap: butt; stroke-dashoffset: 0; stroke-linejoin: miter; stroke-miterlimit: 4; fill: rgb(255,255,255); fill-rule: evenodd; opacity: 1;" vector-effect="non-scaling-stroke"  transform=" translate(-432.33, -84.69)" d="M 444.738 105.571 C 444.467 106.653 444.043 107.57 443.467 108.318 C 442.892 109.066 442.173 109.456 441.31 109.489 C 440.767 109.52 440.351 109.233 440.063 108.629 C 439.776 108.023 439.576 107.243 439.464 106.288 C 439.352 105.332 439.304 104.265 439.32 103.087 C 439.336 101.909 439.384 100.746 439.464 99.5996 C 439.543 98.4536 439.64 97.3857 439.752 96.3991 C 439.863 95.4112 439.951 94.6482 440.015 94.1064 C 441.102 94.2336 442.006 94.7027 442.724 95.5154 C 443.443 96.3275 443.995 97.2906 444.378 98.4057 C 444.762 99.5202 444.985 100.723 445.05 102.012 C 445.113 103.302 445.009 104.488 444.738 105.571 Z M 427.382 105.571 C 427.111 106.653 426.687 107.57 426.112 108.318 C 425.537 109.066 424.817 109.456 423.954 109.489 C 423.411 109.52 422.996 109.233 422.708 108.629 C 422.42 108.023 422.22 107.243 422.109 106.288 C 421.996 105.332 421.948 104.265 421.965 103.087 C 421.98 101.909 422.028 100.746 422.109 99.5996 C 422.188 98.4536 422.284 97.3857 422.396 96.3991 C 422.508 95.4112 422.595 94.6482 422.66 94.1064 C 423.746 94.2336 424.65 94.7027 425.368 95.5154 C 426.088 96.3275 426.639 97.2906 427.023 98.4057 C 427.407 99.5202 427.63 100.723 427.694 102.012 C 427.757 103.302 427.653 104.488 427.382 105.571 Z M 409.572 78.4375 C 409.539 79.2011 409.467 79.8781 409.355 80.4672 C 409.243 81.0575 409.092 81.4308 408.9 81.5902 C 408.548 81.3987 408.116 80.906 407.605 80.109 C 407.094 79.3133 406.695 78.4127 406.406 77.4096 C 406.119 76.4066 406.03 75.42 406.143 74.4479 C 406.254 73.477 406.758 72.7212 407.653 72.1788 C 408.004 71.9879 408.308 72.0594 408.564 72.394 C 408.82 72.7285 409.027 73.2139 409.188 73.8509 C 409.347 74.4885 409.458 75.2206 409.523 76.0485 C 409.587 76.8769 409.603 77.6727 409.572 78.4375 Z M 405.328 87.9677 C 404.832 88.4925 404.28 88.9464 403.674 89.3289 C 403.066 89.7113 402.443 89.9979 401.804 90.1889 C 401.164 90.3804 400.589 90.4276 400.078 90.3319 C 398.64 90.0458 397.537 89.424 396.77 88.4689 C 396.003 87.5137 395.515 86.3913 395.308 85.1017 C 395.1 83.8114 395.123 82.4338 395.38 80.969 C 395.635 79.5042 396.066 78.143 396.674 76.8848 C 397.281 75.6266 398.017 74.5436 398.879 73.6364 C 399.742 72.7285 400.685 72.1637 401.708 71.94 C 401.324 73.5642 401.197 75.2448 401.324 76.98 C 401.452 78.7157 401.868 80.3478 402.571 81.8762 C 403.018 82.8011 403.554 83.6441 404.177 84.4083 C 404.801 85.1732 405.56 85.8259 406.455 86.3671 C 406.199 86.9089 405.823 87.4422 405.328 87.9677 Z M 458.378 78.9151 C 458.474 78.183 458.617 77.4096 458.81 76.5975 C 459.001 75.786 459.241 74.9976 459.528 74.2333 C 459.816 73.4685 460.152 72.8079 460.536 72.2509 C 460.92 71.694 461.326 71.2952 461.758 71.0564 C 462.19 70.8176 462.629 70.8413 463.076 71.1279 C 463.556 71.4152 463.851 72.02 463.963 72.943 C 464.075 73.8673 463.963 74.8539 463.628 75.9054 C 463.292 76.9563 462.693 77.9436 461.83 78.8666 C 460.968 79.7914 459.8 80.3957 458.33 80.6823 C 458.266 80.2369 458.282 79.6478 458.378 78.9151 Z M 477.7 78.9151 C 477.796 78.183 477.939 77.4096 478.131 76.5975 C 478.323 75.786 478.563 74.9976 478.851 74.2333 C 479.138 73.4685 479.473 72.8079 479.857 72.2509 C 480.241 71.694 480.649 71.2952 481.08 71.0564 C 481.512 70.8176 481.951 70.8413 482.398 71.1279 C 482.878 71.4152 483.173 72.02 483.285 72.943 C 483.397 73.8673 483.285 74.8539 482.95 75.9054 C 482.614 76.9563 482.015 77.9436 481.152 78.8666 C 480.289 79.7914 479.122 80.3957 477.652 80.6823 C 477.588 80.2369 477.604 79.6478 477.7 78.9151 Z M 495.655 81.7096 C 495.287 81.312 494.84 81.0332 494.313 80.8732 C 493.785 80.7144 493.282 80.6987 492.802 80.826 C 492.323 80.9532 492.018 81.2878 491.891 81.829 C 491.635 82.8484 491.228 83.8914 490.669 84.9574 C 490.109 86.0253 489.422 87.0362 488.607 87.9913 C 487.792 88.9464 486.873 89.7913 485.851 90.5234 C 484.827 91.2561 483.757 91.7816 482.639 92.0991 C 481.519 92.4506 480.592 92.49 479.857 92.2191 C 479.122 91.9488 478.539 91.487 478.107 90.8343 C 477.676 90.181 477.365 89.3931 477.172 88.4689 C 476.981 87.5459 476.868 86.5907 476.837 85.6029 C 478.659 85.7307 480.281 85.4047 481.703 84.6235 C 483.125 83.8435 484.332 82.8077 485.324 81.5181 C 486.314 80.229 487.065 78.7799 487.576 77.1715 C 488.087 75.563 488.375 73.963 488.44 72.3703 C 488.471 70.8734 488.247 69.6073 487.768 68.5722 C 487.289 67.5377 486.642 66.7328 485.827 66.1601 C 485.011 65.5862 484.077 65.2522 483.021 65.1565 C 481.967 65.0607 480.896 65.205 479.809 65.5862 C 478.498 66.0328 477.388 66.7571 476.478 67.7601 C 475.567 68.7637 474.807 69.9267 474.2 71.2473 C 473.592 72.5697 473.113 73.9939 472.761 75.523 C 472.409 77.0515 472.154 78.5569 471.995 80.0375 C 471.839 81.4744 471.755 82.8496 471.736 84.1659 C 471.615 84.4283 471.486 84.692 471.347 84.9574 C 470.787 86.0253 470.1 87.0362 469.285 87.9913 C 468.471 88.9464 467.551 89.7913 466.529 90.5234 C 465.506 91.2561 464.435 91.7816 463.317 92.0991 C 462.197 92.4506 461.271 92.49 460.536 92.2191 C 459.8 91.9488 459.217 91.487 458.786 90.8343 C 458.355 90.181 458.043 89.3931 457.851 88.4689 C 457.659 87.5459 457.547 86.5907 457.515 85.6029 C 459.337 85.7307 460.959 85.4047 462.382 84.6235 C 463.803 83.8435 465.01 82.8077 466.001 81.5181 C 466.992 80.229 467.743 78.7799 468.254 77.1715 C 468.765 75.563 469.054 73.963 469.117 72.3703 C 469.149 70.8734 468.926 69.6073 468.447 68.5722 C 467.967 67.5377 467.319 66.7328 466.504 66.1601 C 465.689 65.5862 464.755 65.2522 463.7 65.1565 C 462.645 65.0607 461.574 65.205 460.488 65.5862 C 459.176 66.0328 458.066 66.7571 457.156 67.7601 C 456.245 68.7637 455.485 69.9267 454.878 71.2473 C 454.271 72.5697 453.792 73.9939 453.44 75.523 C 453.088 77.0515 452.832 78.5569 452.673 80.0375 C 452.582 80.8726 452.522 81.6823 452.477 82.4774 C 452.168 82.7393 451.867 83.0029 451.546 83.2617 C 450.444 84.1538 449.284 84.9574 448.07 85.6744 C 446.855 86.3913 445.592 86.9804 444.283 87.4422 C 442.971 87.904 441.629 88.1828 440.255 88.278 L 443.228 56.5578 C 443.42 55.8887 443.324 55.3003 442.94 54.7906 C 442.557 54.2809 442.061 53.9306 441.454 53.7397 C 440.847 53.5482 440.199 53.5645 439.512 53.787 C 438.824 54.0106 438.258 54.5203 437.81 55.3154 C 437.586 56.5263 437.354 58.182 437.115 60.2838 C 436.875 62.3856 436.635 64.6789 436.396 67.1631 C 436.156 69.6473 435.916 72.2109 435.677 74.8539 C 435.437 77.4981 435.229 79.966 435.053 82.2587 C 435.045 82.3605 435.039 82.4526 435.031 82.5532 C 434.751 82.7896 434.48 83.0277 434.19 83.2617 C 433.088 84.1538 431.928 84.9574 430.714 85.6744 C 429.499 86.3913 428.237 86.9804 426.927 87.4422 C 425.616 87.904 424.273 88.1828 422.899 88.278 L 425.872 56.5578 C 426.064 55.8887 425.968 55.3003 425.585 54.7906 C 425.201 54.2809 424.705 53.9306 424.098 53.7397 C 423.491 53.5482 422.843 53.5645 422.156 53.787 C 421.469 54.0106 420.902 54.5203 420.454 55.3154 C 420.23 56.5263 419.999 58.182 419.76 60.2838 C 419.519 62.3856 419.28 64.6789 419.04 67.1631 C 418.8 69.6473 418.561 72.2109 418.321 74.8539 C 418.082 77.4981 417.873 79.966 417.698 82.2587 C 417.694 82.3047 417.691 82.3465 417.687 82.3926 C 417.185 82.6247 416.638 82.8284 416.043 82.9993 C 415.436 83.175 414.749 83.2786 413.982 83.3102 C 414.11 82.7362 414.213 82.0993 414.293 81.3987 C 414.373 80.6987 414.438 79.966 414.486 79.2011 C 414.534 78.4375 414.549 77.6727 414.534 76.9084 C 414.517 76.1436 414.477 75.4436 414.414 74.806 C 414.253 73.4376 413.958 72.1394 413.527 70.9128 C 413.095 69.6873 412.512 68.6607 411.777 67.8316 C 411.041 67.0037 410.123 66.4462 409.019 66.1601 C 407.917 65.8734 406.63 65.9686 405.161 66.4462 C 402.986 66.1601 401.029 66.3595 399.287 67.0437 C 397.545 67.7292 396.034 68.7237 394.756 70.0291 C 393.478 71.3358 392.431 72.8715 391.616 74.6394 C 390.801 76.4066 390.257 78.2224 389.986 80.0848 C 389.871 80.8744 389.815 81.6605 389.798 82.4447 C 389.303 83.4544 388.761 84.3368 388.164 85.0774 C 387.317 86.1283 386.438 86.9883 385.527 87.6568 C 384.616 88.3258 383.713 88.8355 382.819 89.1858 C 381.923 89.5367 381.124 89.7755 380.421 89.9022 C 379.59 90.0616 378.791 90.0779 378.024 89.9501 C 377.257 89.8234 376.553 89.4567 375.915 88.8513 C 375.403 88.4058 375.011 87.6889 374.74 86.7016 C 374.468 85.7144 374.309 84.5926 374.261 83.3338 C 374.213 82.0756 374.261 80.7617 374.404 79.3926 C 374.548 78.0236 374.795 76.7254 375.147 75.4994 C 375.499 74.2733 375.945 73.1746 376.49 72.2024 C 377.032 71.2322 377.672 70.5388 378.408 70.1249 C 378.822 70.1891 379.079 70.4352 379.175 70.8649 C 379.271 71.2952 379.294 71.8049 379.246 72.394 C 379.199 72.9836 379.127 73.5885 379.031 74.2091 C 378.935 74.8303 378.887 75.3485 378.887 75.7618 C 379.047 76.6218 379.358 77.2909 379.822 77.7684 C 380.285 78.246 380.805 78.5254 381.38 78.6042 C 381.955 78.6842 382.522 78.549 383.083 78.1981 C 383.641 77.8484 384.096 77.2909 384.449 76.526 C 384.48 76.5581 384.528 76.5739 384.592 76.5739 L 385.264 70.5073 C 385.455 69.6788 385.327 68.9467 384.88 68.3098 C 384.432 67.6728 383.841 67.3062 383.106 67.211 C 382.179 65.8734 380.924 65.165 379.342 65.085 C 377.76 65.0056 376.138 65.5231 374.476 66.6377 C 373.453 67.371 372.55 68.3813 371.767 69.671 C 370.983 70.9613 370.345 72.394 369.85 73.9703 C 369.353 75.5466 369.002 77.2115 368.795 78.963 C 368.587 80.7144 368.547 82.4187 368.674 84.0738 C 368.802 85.7307 369.098 87.2913 369.562 88.7555 C 370.025 90.221 370.672 91.447 371.504 92.4337 C 372.207 93.2937 373.005 93.9233 373.9 94.3215 C 374.795 94.7197 375.73 94.9658 376.705 95.0615 C 377.68 95.1567 378.647 95.1167 379.606 94.9421 C 380.565 94.7676 381.476 94.5209 382.339 94.2015 C 383.457 93.7882 384.609 93.2621 385.791 92.6252 C 386.973 91.9888 388.108 91.224 389.195 90.3319 C 389.767 89.8628 390.317 89.3513 390.849 88.8028 C 391.091 89.4016 391.362 89.981 391.688 90.5234 C 392.551 91.9561 393.717 93.1191 395.188 94.0106 C 396.657 94.9021 398.464 95.3312 400.605 95.3003 C 402.907 95.2682 405.032 94.6876 406.982 93.5567 C 408.932 92.427 410.53 90.7616 411.777 88.5646 C 413.644 88.5646 415.481 88.258 417.287 87.6489 C 417.272 87.8416 417.256 88.0446 417.242 88.2307 C 417.115 89.9186 417.05 91.0646 417.05 91.67 C 417.019 92.7209 416.947 94.0185 416.835 95.5627 C 416.723 97.1075 416.651 98.7318 416.619 100.435 C 416.588 102.139 416.651 103.859 416.811 105.595 C 416.971 107.33 417.306 108.907 417.818 110.325 C 418.328 111.741 419.055 112.944 419.999 113.932 C 420.941 114.918 422.18 115.508 423.715 115.699 C 425.345 115.921 426.751 115.635 427.934 114.839 C 429.116 114.042 430.075 112.952 430.811 111.567 C 431.546 110.181 432.064 108.581 432.369 106.766 C 432.672 104.95 432.76 103.127 432.633 101.295 C 432.504 99.4639 432.168 97.7366 431.625 96.113 C 431.082 94.4882 430.33 93.1506 429.372 92.0991 C 429.948 91.9409 430.634 91.6385 431.434 91.1919 C 432.232 90.7464 433.055 90.2446 433.903 89.687 C 434.111 89.5501 434.316 89.4058 434.524 89.2652 C 434.446 90.3937 434.406 91.1985 434.406 91.67 C 434.375 92.7209 434.303 94.0185 434.19 95.5627 C 434.079 97.1075 434.007 98.7318 433.975 100.435 C 433.943 102.139 434.007 103.859 434.167 105.595 C 434.326 107.33 434.662 108.907 435.173 110.325 C 435.684 111.741 436.412 112.944 437.354 113.932 C 438.297 114.918 439.536 115.508 441.071 115.699 C 442.7 115.921 444.106 115.635 445.289 114.839 C 446.472 114.042 447.431 112.952 448.166 111.567 C 448.901 110.181 449.42 108.581 449.724 106.766 C 450.028 104.95 450.115 103.127 449.988 101.295 C 449.86 99.4639 449.524 97.7366 448.982 96.113 C 448.437 94.4882 447.687 93.1506 446.727 92.0991 C 447.303 91.9409 447.99 91.6385 448.789 91.1919 C 449.588 90.7464 450.411 90.2446 451.259 89.687 C 451.699 89.3974 452.136 89.0986 452.573 88.7913 C 452.737 90.3488 453.091 91.7149 453.655 92.864 C 454.343 94.2658 455.277 95.3482 456.46 96.113 C 457.642 96.8766 459.033 97.299 460.632 97.3784 C 462.23 97.4572 463.971 97.1633 465.858 96.4942 C 467.264 95.9851 468.486 95.3482 469.525 94.5839 C 470.563 93.8191 471.498 92.8876 472.33 91.7894 C 472.378 91.7258 472.423 91.6567 472.47 91.5925 C 472.618 92.0385 472.782 92.467 472.977 92.864 C 473.665 94.2658 474.6 95.3482 475.782 96.113 C 476.964 96.8766 478.355 97.299 479.953 97.3784 C 481.551 97.4572 483.293 97.1633 485.179 96.4942 C 486.586 95.9851 487.808 95.3482 488.847 94.5839 C 489.885 93.8191 490.82 92.8876 491.652 91.7894 C 492.483 90.6901 493.241 89.424 493.929 87.9913 C 494.616 86.558 495.311 84.9186 496.015 83.0708 C 496.142 82.5617 496.022 82.1078 495.655 81.7096 Z" stroke-linecap="round" />
</g>
</svg>